<svg xmlns="http://www.w3.org/2000/svg" viewBox="0 0 448 64" width="448" height="64" shape-rendering="crispEdges">
  <defs>
    <filter id="glow-cyan" x="-40%" y="-40%" width="180%" height="180%"><feGaussianBlur stdDeviation="2.2" result="b"/><feFlood flood-color="#00f0f0" flood-opacity=".75"/><feComposite in2="b" operator="in"/><feMerge><feMergeNode/><feMergeNode in="SourceGraphic"/></feMerge></filter>
    <filter id="glow-yellow" x="-40%" y="-40%" width="180%" height="180%"><feGaussianBlur stdDeviation="2.2" result="b"/><feFlood flood-color="#f0f000" flood-opacity=".72"/><feComposite in2="b" operator="in"/><feMerge><feMergeNode/><feMergeNode in="SourceGraphic"/></feMerge></filter>
    <filter id="glow-purple" x="-40%" y="-40%" width="180%" height="180%"><feGaussianBlur stdDeviation="2.2" result="b"/><feFlood flood-color="#a000f0" flood-opacity=".78"/><feComposite in2="b" operator="in"/><feMerge><feMergeNode/><feMergeNode in="SourceGraphic"/></feMerge></filter>
    <filter id="glow-green" x="-40%" y="-40%" width="180%" height="180%"><feGaussianBlur stdDeviation="2.2" result="b"/><feFlood flood-color="#00f000" flood-opacity=".72"/><feComposite in2="b" operator="in"/><feMerge><feMergeNode/><feMergeNode in="SourceGraphic"/></feMerge></filter>
    <filter id="glow-red" x="-40%" y="-40%" width="180%" height="180%"><feGaussianBlur stdDeviation="2.2" result="b"/><feFlood flood-color="#f00000" flood-opacity=".74"/><feComposite in2="b" operator="in"/><feMerge><feMergeNode/><feMergeNode in="SourceGraphic"/></feMerge></filter>
    <filter id="glow-blue" x="-40%" y="-40%" width="180%" height="180%"><feGaussianBlur stdDeviation="2.2" result="b"/><feFlood flood-color="#0000f0" flood-opacity=".8"/><feComposite in2="b" operator="in"/><feMerge><feMergeNode/><feMergeNode in="SourceGraphic"/></feMerge></filter>
    <filter id="glow-orange" x="-40%" y="-40%" width="180%" height="180%"><feGaussianBlur stdDeviation="2.2" result="b"/><feFlood flood-color="#f0a000" flood-opacity=".76"/><feComposite in2="b" operator="in"/><feMerge><feMergeNode/><feMergeNode in="SourceGraphic"/></feMerge></filter>
  </defs>
  <g transform="translate(0 0)" filter="url(#glow-cyan)">
    <rect x="6" y="6" width="52" height="52" fill="#00f0f0" opacity=".18"/>
    <rect x="9" y="9" width="46" height="46" fill="#00f0f0" opacity=".38"/>
    <rect x="13" y="13" width="38" height="38" fill="#050713" opacity=".54"/>
    <rect x="14" y="14" width="36" height="36" fill="#00f0f0" opacity=".28"/>
    <rect x="9" y="9" width="46" height="4" fill="#fff" opacity=".74"/>
    <rect x="9" y="9" width="4" height="46" fill="#fff" opacity=".5"/>
    <rect x="16" y="16" width="28" height="3" fill="#fff" opacity=".82"/>
    <rect x="16" y="21" width="3" height="24" fill="#fff" opacity=".44"/>
    <rect x="45" y="17" width="4" height="30" fill="#fff" opacity=".18"/>
    <rect x="19" y="45" width="27" height="4" fill="#000" opacity=".26"/>
    <rect x="9" y="9" width="46" height="46" fill="none" stroke="#fff" stroke-width="2" opacity=".9"/>
    <rect x="5" y="5" width="54" height="54" fill="none" stroke="#00f0f0" stroke-width="2"/>
    <rect x="2" y="2" width="60" height="60" fill="none" stroke="#00f0f0" stroke-width="1" opacity=".45"/>
  </g>
  <g transform="translate(64 0)" filter="url(#glow-yellow)">
    <rect x="6" y="6" width="52" height="52" fill="#f0f000" opacity=".18"/>
    <rect x="9" y="9" width="46" height="46" fill="#f0f000" opacity=".38"/>
    <rect x="13" y="13" width="38" height="38" fill="#050713" opacity=".54"/>
    <rect x="14" y="14" width="36" height="36" fill="#f0f000" opacity=".28"/>
    <rect x="9" y="9" width="46" height="4" fill="#fff" opacity=".74"/>
    <rect x="9" y="9" width="4" height="46" fill="#fff" opacity=".5"/>
    <rect x="16" y="16" width="28" height="3" fill="#fff" opacity=".82"/>
    <rect x="16" y="21" width="3" height="24" fill="#fff" opacity=".44"/>
    <rect x="45" y="17" width="4" height="30" fill="#fff" opacity=".18"/>
    <rect x="19" y="45" width="27" height="4" fill="#000" opacity=".26"/>
    <rect x="9" y="9" width="46" height="46" fill="none" stroke="#fff" stroke-width="2" opacity=".9"/>
    <rect x="5" y="5" width="54" height="54" fill="none" stroke="#f0f000" stroke-width="2"/>
    <rect x="2" y="2" width="60" height="60" fill="none" stroke="#f0f000" stroke-width="1" opacity=".45"/>
  </g>
  <g transform="translate(128 0)" filter="url(#glow-purple)">
    <rect x="6" y="6" width="52" height="52" fill="#a000f0" opacity=".18"/>
    <rect x="9" y="9" width="46" height="46" fill="#a000f0" opacity=".38"/>
    <rect x="13" y="13" width="38" height="38" fill="#050713" opacity=".54"/>
    <rect x="14" y="14" width="36" height="36" fill="#a000f0" opacity=".28"/>
    <rect x="9" y="9" width="46" height="4" fill="#fff" opacity=".74"/>
    <rect x="9" y="9" width="4" height="46" fill="#fff" opacity=".5"/>
    <rect x="16" y="16" width="28" height="3" fill="#fff" opacity=".82"/>
    <rect x="16" y="21" width="3" height="24" fill="#fff" opacity=".44"/>
    <rect x="45" y="17" width="4" height="30" fill="#fff" opacity=".18"/>
    <rect x="19" y="45" width="27" height="4" fill="#000" opacity=".26"/>
    <rect x="9" y="9" width="46" height="46" fill="none" stroke="#fff" stroke-width="2" opacity=".9"/>
    <rect x="5" y="5" width="54" height="54" fill="none" stroke="#a000f0" stroke-width="2"/>
    <rect x="2" y="2" width="60" height="60" fill="none" stroke="#a000f0" stroke-width="1" opacity=".45"/>
  </g>
  <g transform="translate(192 0)" filter="url(#glow-green)">
    <rect x="6" y="6" width="52" height="52" fill="#00f000" opacity=".18"/>
    <rect x="9" y="9" width="46" height="46" fill="#00f000" opacity=".38"/>
    <rect x="13" y="13" width="38" height="38" fill="#050713" opacity=".54"/>
    <rect x="14" y="14" width="36" height="36" fill="#00f000" opacity=".28"/>
    <rect x="9" y="9" width="46" height="4" fill="#fff" opacity=".74"/>
    <rect x="9" y="9" width="4" height="46" fill="#fff" opacity=".5"/>
    <rect x="16" y="16" width="28" height="3" fill="#fff" opacity=".82"/>
    <rect x="16" y="21" width="3" height="24" fill="#fff" opacity=".44"/>
    <rect x="45" y="17" width="4" height="30" fill="#fff" opacity=".18"/>
    <rect x="19" y="45" width="27" height="4" fill="#000" opacity=".26"/>
    <rect x="9" y="9" width="46" height="46" fill="none" stroke="#fff" stroke-width="2" opacity=".9"/>
    <rect x="5" y="5" width="54" height="54" fill="none" stroke="#00f000" stroke-width="2"/>
    <rect x="2" y="2" width="60" height="60" fill="none" stroke="#00f000" stroke-width="1" opacity=".45"/>
  </g>
  <g transform="translate(256 0)" filter="url(#glow-red)">
    <rect x="6" y="6" width="52" height="52" fill="#f00000" opacity=".18"/>
    <rect x="9" y="9" width="46" height="46" fill="#f00000" opacity=".38"/>
    <rect x="13" y="13" width="38" height="38" fill="#050713" opacity=".54"/>
    <rect x="14" y="14" width="36" height="36" fill="#f00000" opacity=".28"/>
    <rect x="9" y="9" width="46" height="4" fill="#fff" opacity=".74"/>
    <rect x="9" y="9" width="4" height="46" fill="#fff" opacity=".5"/>
    <rect x="16" y="16" width="28" height="3" fill="#fff" opacity=".82"/>
    <rect x="16" y="21" width="3" height="24" fill="#fff" opacity=".44"/>
    <rect x="45" y="17" width="4" height="30" fill="#fff" opacity=".18"/>
    <rect x="19" y="45" width="27" height="4" fill="#000" opacity=".26"/>
    <rect x="9" y="9" width="46" height="46" fill="none" stroke="#fff" stroke-width="2" opacity=".9"/>
    <rect x="5" y="5" width="54" height="54" fill="none" stroke="#f00000" stroke-width="2"/>
    <rect x="2" y="2" width="60" height="60" fill="none" stroke="#f00000" stroke-width="1" opacity=".45"/>
  </g>
  <g transform="translate(320 0)" filter="url(#glow-blue)">
    <rect x="6" y="6" width="52" height="52" fill="#0000f0" opacity=".18"/>
    <rect x="9" y="9" width="46" height="46" fill="#0000f0" opacity=".38"/>
    <rect x="13" y="13" width="38" height="38" fill="#050713" opacity=".54"/>
    <rect x="14" y="14" width="36" height="36" fill="#0000f0" opacity=".28"/>
    <rect x="9" y="9" width="46" height="4" fill="#fff" opacity=".74"/>
    <rect x="9" y="9" width="4" height="46" fill="#fff" opacity=".5"/>
    <rect x="16" y="16" width="28" height="3" fill="#fff" opacity=".82"/>
    <rect x="16" y="21" width="3" height="24" fill="#fff" opacity=".44"/>
    <rect x="45" y="17" width="4" height="30" fill="#fff" opacity=".18"/>
    <rect x="19" y="45" width="27" height="4" fill="#000" opacity=".26"/>
    <rect x="9" y="9" width="46" height="46" fill="none" stroke="#fff" stroke-width="2" opacity=".9"/>
    <rect x="5" y="5" width="54" height="54" fill="none" stroke="#0000f0" stroke-width="2"/>
    <rect x="2" y="2" width="60" height="60" fill="none" stroke="#0000f0" stroke-width="1" opacity=".45"/>
  </g>
  <g transform="translate(384 0)" filter="url(#glow-orange)">
    <rect x="6" y="6" width="52" height="52" fill="#f0a000" opacity=".18"/>
    <rect x="9" y="9" width="46" height="46" fill="#f0a000" opacity=".38"/>
    <rect x="13" y="13" width="38" height="38" fill="#050713" opacity=".54"/>
    <rect x="14" y="14" width="36" height="36" fill="#f0a000" opacity=".28"/>
    <rect x="9" y="9" width="46" height="4" fill="#fff" opacity=".74"/>
    <rect x="9" y="9" width="4" height="46" fill="#fff" opacity=".5"/>
    <rect x="16" y="16" width="28" height="3" fill="#fff" opacity=".82"/>
    <rect x="16" y="21" width="3" height="24" fill="#fff" opacity=".44"/>
    <rect x="45" y="17" width="4" height="30" fill="#fff" opacity=".18"/>
    <rect x="19" y="45" width="27" height="4" fill="#000" opacity=".26"/>
    <rect x="9" y="9" width="46" height="46" fill="none" stroke="#fff" stroke-width="2" opacity=".9"/>
    <rect x="5" y="5" width="54" height="54" fill="none" stroke="#f0a000" stroke-width="2"/>
    <rect x="2" y="2" width="60" height="60" fill="none" stroke="#f0a000" stroke-width="1" opacity=".45"/>
  </g>
</svg>
